<svg width="266" height="100" viewBox="0 0 266 100" fill="none"
  xmlns="http://www.w3.org/2000/svg">
  <g filter="url(#filter0_d_61_8090)">
    <path d="M112 0H154C186 0 195.501 24.1398 205.732 48.6985C216.325 74.1247 227 100 262 100H4.00006C39.0001 100 49.6754 74.1247 60.2678 48.6985C70.4989 24.1398 80.0001 0 112 0Z" fill="url(#paint0_linear_61_8090)"/>
    <path d="M112 0.25H154C169.923 0.25 180.229 6.24974 187.838 15.3006C195.21 24.0697 200.053 35.7041 204.994 47.575C205.163 47.9813 205.332 48.3879 205.502 48.7947L205.604 49.0418C210.863 61.6652 216.18 74.4274 224.525 84.0479C231.572 92.1732 240.777 98.0545 253.909 99.75H12.0914C25.2236 98.0545 34.4277 92.1732 41.4756 84.0479C49.8205 74.4273 55.137 61.6651 60.3957 49.0417L60.4986 48.7947C60.668 48.3879 60.8373 47.9813 61.0064 47.5751C65.9474 35.7041 70.79 24.0697 78.1619 15.3006C85.7708 6.24974 96.0772 0.25 112 0.25Z" stroke="#7582F4" stroke-opacity="0.5" stroke-width="0.5"/>
  </g>
  <g filter="url(#filter1_f_61_8090)">
    <circle cx="133" cy="44" r="32" fill="url(#paint1_linear_61_8090)" fill-opacity="0.4"/>
  </g>
  <g filter="url(#filter2_ddi_61_8090)">
    <circle cx="133" cy="44" r="29" fill="url(#paint2_linear_61_8090)"/>
    <circle cx="133" cy="44" r="28.9" stroke="url(#paint3_linear_61_8090)" stroke-width="0.2"/>
  </g>
  <mask id="mask0_61_8090" style="mask-type:alpha" maskUnits="userSpaceOnUse" x="104" y="15" width="58" height="58">
    <circle cx="133" cy="44" r="29" fill="url(#paint4_linear_61_8090)"/>
  </mask>
  <g mask="url(#mask0_61_8090)">
    <g filter="url(#filter3_f_61_8090)">
      <path d="M162 44C162 60.0163 149.016 73 133 73C116.984 73 104 60.0163 104 44C104 27.9837 116.984 15 133 15C149.016 15 162 27.9837 162 44ZM106.9 44C106.9 58.4146 118.585 70.1 133 70.1C147.415 70.1 159.1 58.4146 159.1 44C159.1 29.5854 147.415 17.9 133 17.9C118.585 17.9 106.9 29.5854 106.9 44Z" fill="url(#paint5_linear_61_8090)"/>
    </g>
    <path d="M121.269 44.1289C121.269 45.2773 122.199 46.207 123.347 46.207H130.935V53.7949C130.935 54.9297 131.851 55.873 133 55.873C134.148 55.873 135.078 54.9297 135.078 53.7949V46.207H142.666C143.8 46.207 144.73 45.2773 144.73 44.1289C144.73 42.9941 143.8 42.0645 142.666 42.0645H135.078V34.4766C135.078 33.3418 134.148 32.3984 133 32.3984C131.851 32.3984 130.935 33.3418 130.935 34.4766V42.0645H123.347C122.199 42.0645 121.269 42.9941 121.269 44.1289Z" fill="#48319D"/>
  </g>
  <defs>
    <filter id="filter0_d_61_8090" x="6.10352e-05" y="0" width="266" height="108" filterUnits="userSpaceOnUse" color-interpolation-filters="sRGB">
      <feFlood flood-opacity="0" result="BackgroundImageFix"/>
      <feColorMatrix in="SourceAlpha" type="matrix" values="0 0 0 0 0 0 0 0 0 0 0 0 0 0 0 0 0 0 127 0" result="hardAlpha"/>
      <feOffset dy="4"/>
      <feGaussianBlur stdDeviation="2"/>
      <feComposite in2="hardAlpha" operator="out"/>
      <feColorMatrix type="matrix" values="0 0 0 0 0.458824 0 0 0 0 0.509804 0 0 0 0 0.956863 0 0 0 1 0"/>
      <feBlend mode="normal" in2="BackgroundImageFix" result="effect1_dropShadow_61_8090"/>
      <feBlend mode="normal" in="SourceGraphic" in2="effect1_dropShadow_61_8090" result="shape"/>
    </filter>
    <filter id="filter1_f_61_8090" x="100" y="11" width="66" height="66" filterUnits="userSpaceOnUse" color-interpolation-filters="sRGB">
      <feFlood flood-opacity="0" result="BackgroundImageFix"/>
      <feBlend mode="normal" in="SourceGraphic" in2="BackgroundImageFix" result="shape"/>
      <feGaussianBlur stdDeviation="0.5" result="effect1_foregroundBlur_61_8090"/>
    </filter>
    <filter id="filter2_ddi_61_8090" x="74" y="-15" width="118" height="118" filterUnits="userSpaceOnUse" color-interpolation-filters="sRGB">
      <feFlood flood-opacity="0" result="BackgroundImageFix"/>
      <feColorMatrix in="SourceAlpha" type="matrix" values="0 0 0 0 0 0 0 0 0 0 0 0 0 0 0 0 0 0 127 0" result="hardAlpha"/>
      <feOffset dx="10" dy="10"/>
      <feGaussianBlur stdDeviation="10"/>
      <feComposite in2="hardAlpha" operator="out"/>
      <feColorMatrix type="matrix" values="0 0 0 0 0.0519097 0 0 0 0 0.0787861 0 0 0 0 0.191667 0 0 0 0.5 0"/>
      <feBlend mode="normal" in2="BackgroundImageFix" result="effect1_dropShadow_61_8090"/>
      <feColorMatrix in="SourceAlpha" type="matrix" values="0 0 0 0 0 0 0 0 0 0 0 0 0 0 0 0 0 0 127 0" result="hardAlpha"/>
      <feOffset dx="-10" dy="-10"/>
      <feGaussianBlur stdDeviation="10"/>
      <feComposite in2="hardAlpha" operator="out"/>
      <feColorMatrix type="matrix" values="0 0 0 0 1 0 0 0 0 1 0 0 0 0 1 0 0 0 0.5 0"/>
      <feBlend mode="overlay" in2="effect1_dropShadow_61_8090" result="effect2_dropShadow_61_8090"/>
      <feBlend mode="normal" in="SourceGraphic" in2="effect2_dropShadow_61_8090" result="shape"/>
      <feColorMatrix in="SourceAlpha" type="matrix" values="0 0 0 0 0 0 0 0 0 0 0 0 0 0 0 0 0 0 127 0" result="hardAlpha"/>
      <feOffset dx="1" dy="1"/>
      <feGaussianBlur stdDeviation="0.25"/>
      <feComposite in2="hardAlpha" operator="arithmetic" k2="-1" k3="1"/>
      <feColorMatrix type="matrix" values="0 0 0 0 1 0 0 0 0 1 0 0 0 0 1 0 0 0 1 0"/>
      <feBlend mode="normal" in2="shape" result="effect3_innerShadow_61_8090"/>
    </filter>
    <filter id="filter3_f_61_8090" x="102" y="13" width="62" height="62" filterUnits="userSpaceOnUse" color-interpolation-filters="sRGB">
      <feFlood flood-opacity="0" result="BackgroundImageFix"/>
      <feBlend mode="normal" in="SourceGraphic" in2="BackgroundImageFix" result="shape"/>
      <feGaussianBlur stdDeviation="1" result="effect1_foregroundBlur_61_8090"/>
    </filter>
    <linearGradient id="paint0_linear_61_8090" x1="183.615" y1="100" x2="183.615" y2="0" gradientUnits="userSpaceOnUse">
      <stop stop-color="#262C51"/>
      <stop offset="1" stop-color="#3E3F74"/>
    </linearGradient>
    <linearGradient id="paint1_linear_61_8090" x1="112.5" y1="25" x2="151.5" y2="71" gradientUnits="userSpaceOnUse">
      <stop/>
      <stop offset="1" stop-color="white" stop-opacity="0.76"/>
    </linearGradient>
    <linearGradient id="paint2_linear_61_8090" x1="118" y1="23" x2="149.5" y2="67.8333" gradientUnits="userSpaceOnUse">
      <stop stop-color="#F5F5F9"/>
      <stop offset="1" stop-color="#DADFE7"/>
    </linearGradient>
    <linearGradient id="paint3_linear_61_8090" x1="112.833" y1="24.8333" x2="147.167" y2="70.5" gradientUnits="userSpaceOnUse">
      <stop stop-color="white"/>
      <stop offset="1" stop-color="#AEAEAE"/>
    </linearGradient>
    <linearGradient id="paint4_linear_61_8090" x1="118" y1="23" x2="149.5" y2="67.8333" gradientUnits="userSpaceOnUse">
      <stop stop-color="#F5F5F9"/>
      <stop offset="1" stop-color="#DADFE7"/>
    </linearGradient>
    <linearGradient id="paint5_linear_61_8090" x1="108.791" y1="25.2008" x2="133" y2="73" gradientUnits="userSpaceOnUse">
      <stop stop-color="white" stop-opacity="0"/>
      <stop offset="1" stop-color="#BBBFC7"/>
    </linearGradient>
  </defs>
</svg>
